<svg xmlns="http://www.w3.org/2000/svg" xmlns:xlink="http://www.w3.org/1999/xlink" width="1080" zoomAndPan="magnify" viewBox="0 0 810 809.999993" height="1080" preserveAspectRatio="xMidYMid meet" version="1.0"><defs><g/></defs><rect x="-81" width="972" fill="#ffffff" y="-80.999999" height="971.999992" fill-opacity="1"/><rect x="-81" width="972" fill="#3cb371" y="-80.999999" height="971.999992" fill-opacity="1"/><g fill="#8b4513" fill-opacity="1"><g transform="translate(179.073353, 612.241155)"><g><path d="M 3.421875 109.65625 C -0.234375 109.65625 -3.316406 109.65625 -5.828125 109.65625 C -8.335938 109.65625 -10.507812 109.425781 -12.34375 108.96875 C -14.164062 108.507812 -15.765625 108.050781 -17.140625 107.59375 L -17.140625 37.6875 C -15.765625 38.601562 -14.164062 39.289062 -12.34375 39.75 C -8.6875 40.664062 -4.570312 41.125 0 41.125 C 10.507812 41.125 17.707031 38.265625 21.59375 32.546875 C 25.476562 26.835938 27.421875 17.128906 27.421875 3.421875 L 27.421875 -479.75 L 102.796875 -479.75 L 102.796875 0 C 102.796875 37.925781 94.457031 65.679688 77.78125 83.265625 C 61.101562 100.859375 36.316406 109.65625 3.421875 109.65625 Z M 3.421875 109.65625 "/></g></g></g><g fill="#8b4513" fill-opacity="1"><g transform="translate(287.358525, 612.241155)"><g><path d="M 6.859375 -479.75 L 82.25 -479.75 L 102.796875 -209.03125 C 103.710938 -195.78125 104.398438 -183.097656 104.859375 -170.984375 C 105.316406 -158.878906 106.003906 -148.03125 106.921875 -138.4375 C 107.828125 -127.019531 108.507812 -116.285156 108.96875 -106.234375 L 111.03125 -106.234375 L 140.5 -479.75 L 215.890625 -479.75 L 241.25 -106.234375 L 243.296875 -106.234375 C 243.753906 -116.742188 244.441406 -127.476562 245.359375 -138.4375 C 246.273438 -147.582031 247.070312 -157.519531 247.75 -168.25 C 248.4375 -178.988281 249.238281 -189.15625 250.15625 -198.75 L 274.140625 -479.75 L 349.53125 -479.75 L 291.28125 0 L 198.75 0 L 185.046875 -219.3125 C 184.128906 -230.28125 183.328125 -242.734375 182.640625 -256.671875 C 181.960938 -270.609375 181.164062 -283.742188 180.25 -296.078125 C 179.332031 -310.691406 178.644531 -325.082031 178.1875 -339.25 L 176.140625 -339.25 C 175.222656 -325.082031 174.304688 -310.691406 173.390625 -296.078125 C 172.484375 -283.742188 171.570312 -270.609375 170.65625 -256.671875 C 169.738281 -242.734375 168.820312 -230.28125 167.90625 -219.3125 L 150.78125 0 L 54.828125 0 Z M 6.859375 -479.75 "/></g></g></g></svg>